<?xml version="1.0" standalone="no"?>
<!DOCTYPE svg PUBLIC "-//W3C//DTD SVG 20010904//EN"
 "http://www.w3.org/TR/2001/REC-SVG-20010904/DTD/svg10.dtd">
<svg version="1.0" xmlns="http://www.w3.org/2000/svg"
 width="469.000000pt" height="466.000000pt" viewBox="0 0 469.000000 466.000000"
 preserveAspectRatio="xMidYMid meet">

<g transform="translate(0.000000,466.000000) scale(0.100000,-0.100000)"
fill="#000000" stroke="none">
<path d="M4575 4617 c-74 -40 -217 -114 -733 -379 -106 -54 -197 -96 -202 -93
-32 20 61 97 206 171 123 63 152 84 115 84 -12 0 -85 -32 -162 -71 -214 -108
-279 -179 -397 -429 -55 -117 -137 -308 -208 -480 -53 -130 -102 -180 -205
-209 -107 -30 -229 -95 -294 -157 -82 -79 -109 -150 -86 -230 10 -37 229 -369
265 -403 78 -73 228 -20 200 72 -3 12 -24 46 -46 75 -22 29 -38 57 -36 62 2 6
38 -22 82 -61 43 -39 89 -75 103 -80 59 -22 140 -3 188 45 32 32 26 47 -48
124 -28 28 -46 52 -39 52 7 0 48 -18 91 -40 61 -31 89 -40 130 -40 46 0 56 4
96 41 25 23 45 45 45 48 0 4 -52 36 -115 71 -63 36 -115 71 -115 78 0 9 6 12
18 7 54 -21 194 -57 237 -61 68 -7 113 17 143 76 40 80 39 82 -104 118 -177
43 -177 46 -14 63 63 6 132 16 153 21 77 19 156 119 157 198 l0 36 -147 -18
c-171 -20 -213 -21 -213 -9 0 15 51 28 182 45 162 22 191 30 226 65 42 42 219
302 227 333 l7 27 -59 -21 c-32 -11 -121 -42 -198 -68 -77 -27 -148 -51 -157
-55 -11 -4 -18 -3 -18 4 0 14 48 38 205 101 72 29 152 64 179 77 67 34 142
112 172 179 29 67 43 144 25 144 -7 0 -129 -50 -272 -111 -323 -137 -298 -127
-279 -104 8 10 126 73 263 141 320 159 400 222 481 381 29 59 64 180 58 206
-5 25 -18 22 -107 -26z"/>
<path d="M6 4621 c-9 -14 41 -176 76 -248 44 -92 114 -160 233 -226 143 -79
315 -170 423 -225 89 -45 119 -71 66 -58 -14 4 -94 38 -177 77 -139 64 -354
149 -376 149 -13 0 15 -92 45 -153 30 -58 86 -122 136 -153 20 -13 96 -48 170
-78 198 -81 248 -105 248 -116 0 -5 -2 -10 -4 -10 -3 0 -96 32 -207 70 -111
39 -206 70 -212 70 -24 0 9 -71 77 -164 95 -130 151 -193 189 -213 17 -8 101
-27 186 -42 105 -18 156 -30 159 -40 4 -11 -5 -13 -44 -8 -194 24 -262 30
-286 24 -25 -7 -26 -9 -17 -42 17 -61 77 -154 112 -171 20 -11 74 -20 147 -25
196 -14 215 -33 65 -63 -117 -23 -150 -42 -149 -85 3 -63 67 -121 134 -121 19
0 89 16 155 35 65 19 121 32 124 30 10 -10 -25 -35 -119 -85 -68 -37 -100 -60
-100 -72 0 -24 59 -76 99 -88 39 -11 116 11 191 54 44 25 80 33 80 19 0 -5
-25 -30 -56 -57 -48 -42 -55 -52 -52 -80 3 -26 11 -35 57 -58 38 -20 70 -28
105 -28 l51 0 82 87 c45 48 85 85 88 81 4 -3 -14 -37 -39 -74 -56 -81 -64
-106 -42 -140 41 -62 175 -57 220 7 9 13 67 100 128 193 104 157 112 173 116
225 5 70 -11 109 -69 175 -59 66 -143 119 -242 152 -189 62 -229 101 -296 281
-89 241 -225 525 -306 638 -62 87 -169 184 -250 227 -85 44 -183 74 -197 60
-6 -6 32 -31 109 -72 65 -34 133 -73 151 -87 28 -21 62 -69 62 -88 0 -6 -222
106 -585 295 -334 174 -444 230 -449 230 -2 0 -7 -4 -10 -9z"/>
<path d="M2265 4161 c-27 -10 -135 -52 -240 -93 -104 -42 -284 -111 -400 -154
-115 -43 -216 -82 -223 -88 -28 -20 -31 -42 -12 -84 16 -36 24 -42 48 -42 16
0 168 54 337 120 170 66 363 141 431 165 l122 45 54 -19 c29 -10 217 -82 418
-159 201 -77 375 -143 387 -147 48 -14 107 95 71 131 -17 17 -774 308 -858
330 -68 18 -74 17 -135 -5z"/>
<path d="M2337 3843 c-22 -37 -149 -352 -149 -369 0 -31 154 -346 164 -336 19
19 158 309 158 330 0 13 -22 74 -49 135 -26 62 -61 142 -76 180 -26 63 -38 77
-48 60z"/>
<path d="M1880 3539 c0 -33 66 -201 95 -241 29 -39 51 -54 142 -98 59 -29 123
-59 140 -66 l33 -14 -24 62 c-48 128 -114 256 -140 273 -38 25 -246 96 -246
84z"/>
<path d="M2717 3520 c-137 -44 -166 -69 -223 -190 -20 -41 -49 -102 -65 -134
-31 -63 -34 -76 -20 -76 16 0 298 139 309 152 20 25 104 260 96 268 -5 5 -48
-4 -97 -20z"/>
<path d="M4011 3086 c-45 -74 -96 -163 -114 -198 l-32 -63 -3 -650 c-1 -357 0
-660 3 -672 7 -30 32 -53 59 -53 32 0 127 89 156 146 l25 49 3 779 c1 429 -2
784 -6 788 -5 5 -45 -51 -91 -126z"/>
<path d="M2465 3104 c-65 -31 -158 -32 -240 -4 -32 11 -60 18 -62 16 -2 -2 4
-30 13 -62 10 -36 17 -91 16 -139 0 -88 -1 -90 -122 -389 -78 -192 -87 -240
-60 -320 7 -23 72 -110 162 -217 116 -140 154 -179 173 -179 17 0 48 28 122
112 54 62 124 140 156 173 68 69 96 123 97 181 0 57 -17 106 -98 284 -38 85
-76 175 -82 200 -7 26 -13 112 -14 202 0 86 -3 158 -6 161 -3 2 -27 -6 -55
-19z"/>
<path d="M602 2373 l3 -728 27 -55 c14 -30 44 -76 65 -101 87 -105 546 -608
560 -613 20 -8 46 8 62 38 13 24 11 28 -46 93 -108 123 -375 447 -402 487
l-26 40 -5 605 -5 606 -43 75 c-64 112 -170 274 -182 278 -7 3 -10 -220 -8
-725z"/>
<path d="M2444 1823 c-42 -38 -82 -73 -88 -80 -8 -9 -25 2 -68 45 -32 31 -61
53 -65 49 -9 -10 87 -198 150 -296 119 -182 281 -279 497 -297 86 -7 183 5
356 47 243 58 386 58 511 0 96 -45 174 -137 197 -233 12 -53 26 -28 26 48 0
112 -47 260 -125 393 -78 132 -233 261 -364 301 -117 37 -168 30 -501 -60
-115 -31 -168 -35 -236 -15 -51 14 -69 26 -131 91 -40 41 -75 74 -77 74 -3 0
-39 -30 -82 -67z"/>
<path d="M3512 1244 c-12 -8 -57 -66 -99 -127 -175 -256 -465 -476 -675 -513
-150 -27 -217 -9 -519 137 -336 161 -464 197 -635 178 -299 -33 -447 -180
-469 -464 -18 -248 -36 -299 -119 -340 -27 -14 -57 -25 -67 -25 -9 0 -22 -7
-29 -15 -10 -12 -6 -18 22 -35 49 -30 93 -40 133 -29 37 10 112 79 152 141 14
21 28 38 31 38 3 0 18 -12 33 -26 l28 -27 -1 159 c-2 141 1 164 19 205 50 111
162 171 321 170 176 -1 238 -30 792 -380 348 -220 416 -246 615 -245 102 0
132 4 200 27 171 57 355 198 469 360 68 96 150 262 165 334 19 86 10 222 -19
298 -30 80 -104 154 -179 178 -67 21 -139 22 -169 1z"/>
<path d="M1648 623 c-22 -6 -22 -9 2 -47 17 -28 54 -47 339 -164 334 -137 371
-151 371 -134 0 25 -280 179 -547 301 -108 49 -127 54 -165 44z"/>
</g>
</svg>
